<?xml version="1.0" encoding="UTF-8" standalone="no"?>
<!DOCTYPE svg PUBLIC "-//W3C//DTD SVG 20010904//EN"
              "http://www.w3.org/TR/2001/REC-SVG-20010904/DTD/svg10.dtd">

<svg xmlns="http://www.w3.org/2000/svg"
     width="97mm" height="29mm"
     viewBox="0 0 256 256">
  <path id="Unnamed"
        fill="black" stroke="black" stroke-width="1"
        d="M 108.25,5.00
           C 99.31,6.09 91.62,8.50 91.62,8.50
             91.62,8.50 80.92,11.66 71.62,16.25
             61.69,21.15 53.13,27.50 53.00,27.50
             52.87,27.50 36.98,39.59 25.25,54.25
             15.17,66.85 9.00,82.33 9.00,82.33
             9.00,82.33 5.56,90.78 3.62,101.50
             1.23,114.73 0.25,130.75 0.25,130.75
             0.25,130.75 -0.16,144.29 2.73,157.18
             5.72,170.55 12.00,183.27 12.00,183.27
             12.00,183.27 15.82,193.07 22.31,202.50
             29.09,212.34 38.55,221.82 38.55,221.82
             38.55,221.82 47.90,232.23 59.00,239.36
             70.32,246.63 83.38,250.62 83.38,250.62
             83.38,250.62 87.50,252.66 90.44,252.19
             93.73,251.66 95.88,248.62 95.88,248.62
             95.88,248.62 95.72,222.94 95.72,222.94
             95.72,222.94 69.73,222.73 69.73,222.73
             69.73,222.73 62.93,221.08 57.82,215.64
             53.15,210.67 50.12,201.88 50.12,201.88
             50.12,201.88 47.48,196.65 43.62,192.62
             39.61,188.43 34.39,185.43 34.39,185.43
             34.39,185.43 33.84,184.21 33.88,183.09
             33.90,182.26 34.52,181.43 34.52,181.43
             34.52,181.43 44.55,181.45 44.55,181.45
             44.55,181.45 48.75,182.68 53.27,186.91
             56.51,189.93 59.95,194.98 62.82,198.27
             66.13,202.08 68.62,203.94 68.62,203.94
             68.62,203.94 73.52,207.81 79.62,207.94
             87.04,208.09 95.94,204.50 95.94,204.50
             95.94,204.50 96.43,200.75 97.56,197.62
             98.47,195.14 100.06,193.12 100.06,193.12
             100.06,193.12 100.70,191.51 101.81,190.00
             102.70,188.80 104.12,187.62 104.12,187.62
             104.12,187.62 88.75,185.28 77.75,181.25
             68.85,177.99 63.88,172.88 63.88,172.88
             63.88,172.88 56.89,165.99 52.50,157.50
             48.84,150.41 47.64,141.45 47.64,141.45
             47.64,141.45 45.79,132.02 46.25,123.44
             46.72,114.54 49.50,106.50 49.50,106.50
             49.50,106.50 51.11,101.70 53.62,97.50
             56.05,93.45 59.38,90.00 59.38,90.00
             59.38,90.00 56.66,82.75 56.88,75.62
             57.15,66.15 60.38,56.12 60.38,56.12
             60.38,56.12 66.51,55.15 73.00,57.38
             83.53,60.99 96.45,68.50 96.38,68.50
             96.31,68.50 112.25,64.53 128.12,64.62
             144.46,64.72 160.75,68.88 160.75,68.88
             160.75,68.88 168.28,62.47 176.50,59.25
             185.02,55.91 194.25,55.75 194.25,55.75
             194.25,55.75 198.83,62.30 199.38,68.62
             200.25,78.71 197.25,90.38 197.25,90.38
             197.25,90.38 205.25,96.90 207.38,106.12
             210.76,120.78 208.88,140.75 208.88,140.75
             208.88,140.75 206.15,160.66 192.75,172.00
             177.88,184.58 151.91,188.09 151.91,188.09
             151.91,188.09 154.36,189.74 156.38,193.25
             158.49,196.93 160.45,203.09 160.45,203.09
             160.45,203.09 160.31,247.78 160.31,247.78
             160.31,247.78 160.38,249.48 161.72,250.62
             162.78,251.53 164.93,251.90 166.50,252.09
             170.17,252.54 174.77,249.55 174.73,249.55
             174.68,249.55 197.03,241.98 216.09,223.73
             232.19,208.32 245.50,181.75 245.50,181.75
             245.50,181.75 255.25,156.25 255.55,130.73
             255.81,107.42 246.62,83.88 246.62,83.88
             246.62,83.88 232.37,47.34 201.75,26.62
             190.55,19.05 175.33,11.17 162.75,7.75
             143.53,2.52 128.57,4.00 128.57,4.00
             128.57,4.00 117.76,3.84 108.25,5.00 Z" />
</svg>
